<svg enable-background="new 0 0 100 100" height="512" viewBox="0 0 100 100" width="512" xmlns="http://www.w3.org/2000/svg"><path d="m53.0289612 57.2728195-10.4547424-10.4547462 39.91539-39.6061917 12.5103912-2.0556469-2.0556488 12.5103913z" fill="#dbd8dd"/><path d="m53.6125793 56.6892014 6.9201432-6.9201432-2.0122261-8.4425201 36.4795036-36.1703034-12.5103912 2.0556469-39.91539 39.6061917 10.4547424 10.4547462z" fill="#ededed"/><g fill="#dbd8dd"><path d="m54.6069565 45.2398529c-1.147438-1.147438-3.0079422-1.1473274-4.1553841.0001144-1.147438 1.147438-1.1475525 3.0079422-.0001106 4.1553841 1.1475525 1.1475525 3.0081673 1.1475525 4.1556091.0001106 1.1474381-1.147438 1.1474381-3.0080566-.0001144-4.1556091z"/><path d="m47.6399269 73.4303589c-2.027607-2.0276108-4.5783234-3.2023621-7.217041-3.5514603l13.1897621-13.1897659-3.4820786-3.4820786-20.1625976 20.1625977c-.0218182.0214539-.0457363.0391617-.0674648.0608902-4.8984833 4.8984833-4.8984833 12.8407516 0 17.7392349 4.8985767 4.8985748 12.8409328 4.8986664 17.7394199.0001831 4.8985748-4.8985748 4.8985748-12.8410263 0-17.7396011zm-14.9349136 14.9349136c-3.3429489-3.3429489-3.3504353-8.7797852 0-12.1302261 3.3504372-3.3504333 8.7874565-3.343132 12.1304054-.0001831 3.3505287 3.3505325 3.3504372 8.7801514 0 12.1305923-3.3504372 3.3504334-8.7798767 3.3503418-12.1304054-.0001831z"/><path d="m46.6400909 49.7165756-3.4821739-3.4821701-13.192318 13.192318c-.3480988-2.6410027-1.5232162-5.1939087-3.5522842-7.2229729-4.8985748-4.8985786-12.8408432-4.8983955-17.739418.0001793-4.8984833 4.8984833-4.8985748 12.8406639 0 17.7392387s12.8409348 4.8986664 17.739418.0001831c0 0 .0000916-.0000916.0001831-.0001831zm-35.1616869 17.422081c-3.3429508-3.3429451-3.3504362-8.7797813 0-12.1302185s8.7874537-3.343132 12.1304045-.0001831c3.3504353 3.3504372 3.3504353 8.7801514 0 12.1305847-3.3504371 3.350441-8.7799682 3.3502579-12.1304045-.0001831z"/></g><g fill="#de594e"><path d="m47.6399269 73.4303589c-2.027607-2.0276108-4.5783234-3.2023621-7.217041-3.5514603l6.1099358-6.1099358-3.4820824-3.4820824-13.0827675 13.0827714c-.0218182.0214539-.0457363.0391617-.0674648.0608902-4.8984833 4.8984833-4.8984833 12.8407516 0 17.7392349 4.8985767 4.8985748 12.8409328 4.8986664 17.7394199.0001831 4.8985748-4.8985748 4.8985748-12.8410263 0-17.7396011zm-14.9349136 14.9349136c-3.3429489-3.3429489-3.3504353-8.7797852 0-12.1302261 3.3504372-3.3504333 8.7874565-3.343132 12.1304054-.0001831 3.3505287 3.3505325 3.3504372 8.7801514 0 12.1305923-3.3504372 3.3504334-8.7798767 3.3503418-12.1304054-.0001831z"/><path d="m36.0780907 53.3142319-6.1124916 6.1124916c-.3480988-2.6410027-1.5232162-5.1939087-3.5522842-7.2229729-4.8985748-4.8985786-12.8408432-4.8983955-17.739418.0001793-4.8984833 4.8984833-4.8985748 12.8406639 0 17.7392387s12.8409348 4.8986664 17.739418.0001831c0 0 .0000916-.0000916.0001831-.0001831l13.1467628-13.1467666zm-24.5996867 13.8244247c-3.3429508-3.3429451-3.3504362-8.7797813 0-12.1302185s8.7874537-3.343132 12.1304045-.0001831c3.3504353 3.3504372 3.3504353 8.7801514 0 12.1305847-3.3504371 3.350441-8.7799682 3.3502579-12.1304045-.0001831z"/></g></svg>